<svg width="285" height="61" viewBox="0 0 285 61" fill="none" xmlns="http://www.w3.org/2000/svg">
<g clip-path="url(#clip0_12_108)">
<path d="M13.7819 56.2509L21.1967 43.6187C22.2312 41.8628 24.3005 41.8628 25.316 43.6187L32.7306 56.2509C33.7845 58.0555 32.7882 60.6405 31.0063 60.6405H15.5063C13.7245 60.6405 12.7089 58.0555 13.7819 56.2509Z" fill="#873AAA"/>
<path d="M46.2735 54.9856L37.2666 39.6467L32.906 32.2226L25.0297 18.799C24.3588 17.6593 23.0171 17.6593 22.3586 18.799L1.11481 54.9856C0.419106 56.1571 1.07754 57.835 2.2329 57.835H6.39474C7.51282 57.835 8.55636 57.1701 9.22725 56.0304L22.6071 33.2515C23.1537 32.3333 24.247 32.3333 24.7811 33.2515L28.5454 39.6467L32.906 47.0708L38.161 56.0304C38.8319 57.1701 39.8755 57.835 40.9935 57.835H45.1554C46.3107 57.835 46.9568 56.1571 46.2735 54.9856Z" fill="url(#paint0_linear_12_108)"/>
<path d="M46.2735 3.72873L37.2666 19.0676L32.906 26.4918L25.0297 39.9154C24.3588 41.0551 23.0171 41.0551 22.3586 39.9154L1.11481 3.72873C0.419106 2.55728 1.07754 0.879368 2.2329 0.879368H6.39474C7.51282 0.879368 8.55636 1.54425 9.22725 2.68397L22.6071 25.4629C23.1537 26.381 24.247 26.381 24.7811 25.4629L28.5454 19.0676L32.906 11.6435L38.161 2.68397C38.8319 1.54425 39.8755 0.879368 40.9935 0.879368H45.1554C46.3107 0.879368 46.9568 2.55728 46.2735 3.72873Z" fill="url(#paint1_linear_12_108)"/>
</g>
<path d="M53.4 23.2L61.464 23.2L61.464 52.512L73.624 52.512L73.624 60L53.4 60L53.4 23.2ZM77.016 52.512L77.016 60L97.496 60V52.512L77.016 52.512ZM103.245 23.2V55.648L110.541 60L123.725 60V52.512L111.309 52.512L111.309 23.2H103.245ZM147.341 23.2V55.648L140.109 60H126.861V52.512H139.277V23.2L147.341 23.2ZM158.838 23.2H166.134L179.318 35.616V45.28L166.902 33.568V60H158.838V23.2ZM202.934 23.2L195.702 23.2L182.454 35.616V45.28L194.87 33.568V60H202.934V23.2ZM215.713 23.2H223.009L236.193 35.616V45.28L223.777 33.312V60H215.713V23.2ZM251.745 49.632V23.2L259.809 23.2V60H252.257L239.073 47.328V37.984L251.745 49.632ZM271.308 23.2H279.372V60H271.308V23.2Z" fill="url(#paint2_linear_12_108)"/>
<defs>
<linearGradient id="paint0_linear_12_108" x1="0.830078" y1="37.8896" x2="46.5528" y2="37.8896" gradientUnits="userSpaceOnUse">
<stop stop-color="#873AAA"/>
<stop offset="1" stop-color="#DF007F"/>
</linearGradient>
<linearGradient id="paint1_linear_12_108" x1="0.830078" y1="20.8248" x2="46.5528" y2="20.8248" gradientUnits="userSpaceOnUse">
<stop stop-color="#873AAA"/>
<stop offset="1" stop-color="#DF007F"/>
</linearGradient>
<linearGradient id="paint2_linear_12_108" x1="47" y1="40" x2="285" y2="40" gradientUnits="userSpaceOnUse">
<stop stop-color="#873AAA"/>
<stop offset="1" stop-color="#DF007F"/>
</linearGradient>
<clipPath id="clip0_12_108">
<rect width="47" height="61" fill="white"/>
</clipPath>
</defs>
</svg>
