<svg width="204" height="48" viewBox="0 0 204 48" fill="none" xmlns="http://www.w3.org/2000/svg">
<path d="M8.19457 37.3583L12.8859 29.3615C13.5405 28.2499 14.8497 28.2499 15.4922 29.3615L20.1835 37.3583C20.8503 38.5006 20.2199 40.1371 19.0925 40.1371H9.28558C8.15821 40.1371 7.51568 38.5006 8.19457 37.3583Z" fill="#873AAA"/>
<path d="M28.7522 36.5573L23.0535 26.8471L20.2945 22.1473L15.3112 13.6495C14.8867 12.928 14.0378 12.928 13.6212 13.6495L0.180148 36.5573C-0.260024 37.2989 0.156569 38.3611 0.887571 38.3611H3.52079C4.2282 38.3611 4.88845 37.9402 5.31292 37.2187L13.7784 22.7986C14.1243 22.2174 14.816 22.2174 15.1539 22.7986L17.5356 26.8471L20.2945 31.5469L23.6195 37.2187C24.0439 37.9402 24.7042 38.3611 25.4116 38.3611H28.0448C28.7758 38.3611 29.1845 37.2989 28.7522 36.5573Z" fill="url(#paint0_linear_3_16)"/>
<path d="M28.7522 4.10932L23.0535 13.8196L20.2945 18.5194L15.3112 27.0171C14.8867 27.7386 14.0378 27.7386 13.6212 27.0171L0.180148 4.10932C-0.260024 3.36773 0.156569 2.30554 0.887571 2.30554H3.52079C4.2282 2.30554 4.88845 2.72644 5.31292 3.44794L13.7784 17.868C14.1243 18.4493 14.816 18.4493 15.1539 17.868L17.5356 13.8196L20.2945 9.11976L23.6195 3.44794C24.0439 2.72644 24.7042 2.30554 25.4116 2.30554H28.0448C28.7758 2.30554 29.1845 3.36773 28.7522 4.10932Z" fill="url(#paint1_linear_3_16)"/>
<path d="M43.35 11.3L47.886 11.3L47.886 27.788H54.726V32L43.35 32L43.35 11.3ZM56.634 27.788V32H68.154V27.788L56.634 27.788ZM71.3878 11.3V29.552L75.4918 32H82.9078V27.788L75.9238 27.788V11.3L71.3878 11.3ZM96.1918 11.3V29.552L92.1238 32H84.6718V27.788L91.6558 27.788V11.3L96.1918 11.3ZM102.659 11.3H106.763L114.179 18.284V23.72L107.195 17.132L107.195 32H102.659V11.3ZM127.463 11.3H123.395L115.943 18.284V23.72L122.927 17.132L122.927 32H127.463L127.463 11.3ZM134.651 11.3L138.755 11.3L146.171 18.284V23.72L139.187 16.988V32H134.651V11.3ZM154.919 26.168V11.3L159.455 11.3V32H155.207L147.791 24.872V19.616L154.919 26.168ZM165.923 11.3L170.459 11.3V32L165.923 32V11.3Z" fill="white"/>
<defs>
<linearGradient id="paint0_linear_3_16" x1="0" y1="25.7348" x2="28.929" y2="25.7348" gradientUnits="userSpaceOnUse">
<stop stop-color="#873AAA"/>
<stop offset="1" stop-color="#DF007F"/>
</linearGradient>
<linearGradient id="paint1_linear_3_16" x1="0" y1="14.9319" x2="28.929" y2="14.9319" gradientUnits="userSpaceOnUse">
<stop stop-color="#873AAA"/>
<stop offset="1" stop-color="#DF007F"/>
</linearGradient>
</defs>
</svg>
