<svg width="24" height="24" viewBox="0 0 24 24" fill="none" xmlns="http://www.w3.org/2000/svg">
<path d="M14.5715 17.1429V18.8571L9.42868 18.8571V17.1429H2.57153L2.57153 21.4286C2.57153 21.9017 2.95553 22.2857 3.42868 22.2857L20.5715 22.2857C21.0447 22.2857 21.4287 21.9017 21.4287 21.4286V17.1429H14.5715Z" fill="#CE0A86"/>
<path d="M21.4286 5.14287L16.2858 5.14287V2.57144C16.2858 2.09829 15.9018 1.71429 15.4286 1.71429L8.5715 1.71429C8.09836 1.71429 7.71436 2.09829 7.71436 2.57144L7.71436 5.14287L2.5715 5.14287C2.09836 5.14287 1.71436 5.52687 1.71436 6.00001L1.71436 14.5714C1.71436 15.0446 2.09836 15.4286 2.5715 15.4286L9.42864 15.4286V12.8572L14.5715 12.8572V15.4286L21.4286 15.4286C21.9018 15.4286 22.2858 15.0446 22.2858 14.5714L22.2858 6.00001C22.2858 5.52687 21.9018 5.14287 21.4286 5.14287ZM14.5715 5.14287L9.42864 5.14287V3.42858L14.5715 3.42858V5.14287Z" fill="#CE0A86"/>
</svg>
