<svg width="24" height="24" viewBox="0 0 24 24" fill="none" xmlns="http://www.w3.org/2000/svg">
<path d="M11.9999 5.14287C12.9467 5.14287 13.7142 4.37535 13.7142 3.42858C13.7142 2.48181 12.9467 1.71429 11.9999 1.71429C11.0532 1.71429 10.2856 2.48181 10.2856 3.42858C10.2856 4.37535 11.0532 5.14287 11.9999 5.14287Z" fill="#CE0A86"/>
<path d="M20.5715 10.2857C21.5182 10.2857 22.2857 9.51818 22.2857 8.5714C22.2857 7.62463 21.5182 6.85712 20.5715 6.85712C19.6247 6.85712 18.8572 7.62463 18.8572 8.5714C18.8572 9.51818 19.6247 10.2857 20.5715 10.2857Z" fill="#CE0A86"/>
<path d="M3.42864 10.2857C4.37542 10.2857 5.14293 9.51818 5.14293 8.5714C5.14293 7.62463 4.37542 6.85712 3.42864 6.85712C2.48187 6.85712 1.71436 7.62463 1.71436 8.5714C1.71436 9.51818 2.48187 10.2857 3.42864 10.2857Z" fill="#CE0A86"/>
<path d="M18 22.2857L6 22.2857V20.2946C6 19.2566 6.618 18.318 7.57714 17.9212C8.54486 17.52 9.98914 17.1429 12 17.1429C14.0109 17.1429 15.4551 17.52 16.4229 17.9212C17.382 18.318 18 19.2566 18 20.2946V22.2857Z" fill="#CE0A86"/>
<path d="M8.57153 12C8.57153 10.1066 10.1067 8.57141 12.0001 8.57141C13.8935 8.57141 15.4287 10.1066 15.4287 12C15.4287 13.8934 13.8935 16.2857 12.0001 16.2857C10.1067 16.2857 8.57153 13.8934 8.57153 12Z" fill="#CE0A86"/>
</svg>
