<svg width="96" height="40" viewBox="0 0 96 40" fill="none" xmlns="http://www.w3.org/2000/svg">
<rect width="96" height="40" rx="10" stroke="#BCC1CA"/>
<path opacity="0.35" d="M55.0532 20.1702C55.0532 18.2372 56.6202 16.6702 58.5532 16.6702H71.8298C73.7628 16.6702 75.3298 18.2372 75.3298 20.1702V23.234C75.3298 25.167 73.7628 26.734 71.8298 26.734H58.5532C56.6202 26.734 55.0532 25.167 55.0532 23.234V20.1702Z" stroke="black" stroke-linecap="round"/>
<path opacity="0.4" d="M76.6809 20.4255V24.0173C77.4036 23.7131 77.8735 23.0054 77.8735 22.2214C77.8735 21.4374 77.4036 20.7297 76.6809 20.4255Z" fill="black"/>
<path d="M56.2554 19.8723C56.2554 18.7677 57.1509 17.8723 58.2554 17.8723H72.1278C73.2323 17.8723 74.1278 18.7677 74.1278 19.8723V23.5319C74.1278 24.6364 73.2323 25.5319 72.1278 25.5319H58.2554C57.1509 25.5319 56.2554 24.6364 56.2554 23.5319V19.8723Z" fill="black"/>
<path fill-rule="evenodd" clip-rule="evenodd" d="M41.3621 19.2234C43.4613 19.2235 45.4802 20.0468 47.0016 21.5232C47.1162 21.6372 47.2993 21.6357 47.4121 21.52L48.5072 20.3918C48.5644 20.3331 48.5962 20.2536 48.5957 20.1708C48.5953 20.0881 48.5625 20.0089 48.5047 19.9509C44.5116 16.0447 38.212 16.0447 34.2189 19.9509C34.161 20.0089 34.1282 20.088 34.1277 20.1707C34.1271 20.2535 34.1589 20.3331 34.216 20.3918L35.3115 21.52C35.4242 21.6359 35.6075 21.6374 35.722 21.5232C37.2435 20.0467 39.2627 19.2234 41.3621 19.2234ZM41.3923 22.6292C42.5456 22.6291 43.6579 23.0667 44.5128 23.857C44.6284 23.9691 44.8106 23.9667 44.9233 23.8515L46.0172 22.7233C46.0748 22.6642 46.1067 22.5839 46.1059 22.5005C46.1051 22.417 46.0715 22.3374 46.0127 22.2795C43.4093 19.8075 39.3775 19.8075 36.774 22.2795C36.7152 22.3374 36.6816 22.4171 36.6809 22.5005C36.6801 22.584 36.7122 22.6642 36.7699 22.7233L37.8634 23.8515C37.9762 23.9667 38.1583 23.9691 38.274 23.857C39.1283 23.0673 40.2397 22.6297 41.3923 22.6292ZM43.6166 24.8312C43.6183 24.9149 43.5861 24.9955 43.5276 25.0541L41.6354 27.0032C41.58 27.0605 41.5044 27.0928 41.4255 27.0928C41.3466 27.0928 41.2709 27.0605 41.2155 27.0032L39.323 25.0541C39.2645 24.9955 39.2324 24.9148 39.2341 24.8311C39.2358 24.7475 39.2713 24.6683 39.3322 24.6122C40.5406 23.5689 42.3104 23.5689 43.5188 24.6122C43.5796 24.6683 43.615 24.7475 43.6166 24.8312Z" fill="black"/>
<path d="M20.5105 19.5744C20.5105 19.1044 20.8916 18.7234 21.3616 18.7234H22.2127C22.6827 18.7234 23.0637 19.1044 23.0637 19.5744V26.3829C23.0637 26.853 22.6827 27.234 22.2127 27.234H21.3616C20.8916 27.234 20.5105 26.853 20.5105 26.3829V19.5744Z" fill="black"/>
<path d="M24.7661 17.8723C24.7661 17.4023 25.1471 17.0212 25.6171 17.0212H26.4682C26.9382 17.0212 27.3192 17.4023 27.3192 17.8723V26.3829C27.3192 26.853 26.9382 27.234 26.4682 27.234H25.6171C25.1471 27.234 24.7661 26.853 24.7661 26.3829V17.8723Z" fill="black"/>
<path d="M16.2554 22.5531C16.2554 22.0831 16.6365 21.7021 17.1065 21.7021H17.9575C18.4276 21.7021 18.8086 22.0831 18.8086 22.5531V26.3829C18.8086 26.853 18.4276 27.234 17.9575 27.234H17.1065C16.6365 27.234 16.2554 26.853 16.2554 26.3829V22.5531Z" fill="black"/>
<path d="M12 24.6808C12 24.2108 12.381 23.8297 12.8511 23.8297H13.7021C14.1722 23.8297 14.5532 24.2108 14.5532 24.6808V26.3829C14.5532 26.853 14.1722 27.234 13.7021 27.234H12.8511C12.381 27.234 12 26.853 12 26.3829V24.6808Z" fill="black"/>
</svg>
