<?xml version="1.0" encoding="UTF-8" standalone="no"?>
<!DOCTYPE svg PUBLIC "-//W3C//DTD SVG 1.1//EN" "http://www.w3.org/Graphics/SVG/1.1/DTD/svg11.dtd">
<svg width="100%" height="100%" viewBox="0 0 96 40" version="1.1" xmlns="http://www.w3.org/2000/svg" xmlns:xlink="http://www.w3.org/1999/xlink" xml:space="preserve" xmlns:serif="http://www.serif.com/" style="fill-rule:evenodd;clip-rule:evenodd;stroke-linecap:round;">
    <path d="M55.053,20.17C55.053,18.237 56.62,16.67 58.553,16.67L71.83,16.67C73.763,16.67 75.33,18.237 75.33,20.17L75.33,23.234C75.33,25.167 73.763,26.734 71.83,26.734L58.553,26.734C56.62,26.734 55.053,25.167 55.053,23.234L55.053,20.17Z" style="fill:none;fill-rule:nonzero;stroke:black;stroke-opacity:0.35;stroke-width:1px;"/>
    <path d="M76.681,20.425L76.681,24.017C77.404,23.713 77.874,23.005 77.874,22.221C77.874,21.437 77.404,20.73 76.681,20.425Z" style="fill-opacity:0.4;fill-rule:nonzero;"/>
    <path d="M56.255,19.872C56.255,18.768 57.151,17.872 58.255,17.872L72.128,17.872C73.232,17.872 74.128,18.768 74.128,19.872L74.128,23.532C74.128,24.636 73.232,25.532 72.128,25.532L58.255,25.532C57.151,25.532 56.255,24.636 56.255,23.532L56.255,19.872Z" style="fill-rule:nonzero;"/>
    <path d="M41.362,19.223C43.461,19.224 45.48,20.047 47.002,21.523C47.116,21.637 47.299,21.636 47.412,21.52L48.507,20.392C48.564,20.333 48.596,20.254 48.596,20.171C48.595,20.088 48.562,20.009 48.505,19.951C44.512,16.045 38.212,16.045 34.219,19.951C34.161,20.009 34.128,20.088 34.128,20.171C34.127,20.253 34.159,20.333 34.216,20.392L35.312,21.52C35.424,21.636 35.608,21.637 35.722,21.523C37.243,20.047 39.263,19.223 41.362,19.223ZM41.392,22.629C42.546,22.629 43.658,23.067 44.513,23.857C44.628,23.969 44.811,23.967 44.923,23.852L46.017,22.723C46.075,22.664 46.107,22.584 46.106,22.5C46.105,22.417 46.072,22.337 46.013,22.279C43.409,19.808 39.377,19.808 36.774,22.279C36.715,22.337 36.682,22.417 36.681,22.5C36.68,22.584 36.712,22.664 36.77,22.723L37.863,23.852C37.976,23.967 38.158,23.969 38.274,23.857C39.128,23.067 40.24,22.63 41.392,22.629ZM43.617,24.831C43.618,24.915 43.586,24.995 43.528,25.054L41.635,27.003C41.58,27.061 41.504,27.093 41.425,27.093C41.347,27.093 41.271,27.061 41.215,27.003L39.323,25.054C39.264,24.995 39.232,24.915 39.234,24.831C39.236,24.747 39.271,24.668 39.332,24.612C40.541,23.569 42.31,23.569 43.519,24.612C43.58,24.668 43.615,24.747 43.617,24.831Z"/>
    <path d="M20.511,19.574C20.511,19.104 20.892,18.723 21.362,18.723L22.213,18.723C22.683,18.723 23.064,19.104 23.064,19.574L23.064,26.383C23.064,26.853 22.683,27.234 22.213,27.234L21.362,27.234C20.892,27.234 20.511,26.853 20.511,26.383L20.511,19.574Z" style="fill-rule:nonzero;"/>
    <path d="M24.766,17.872C24.766,17.402 25.147,17.021 25.617,17.021L26.468,17.021C26.938,17.021 27.319,17.402 27.319,17.872L27.319,26.383C27.319,26.853 26.938,27.234 26.468,27.234L25.617,27.234C25.147,27.234 24.766,26.853 24.766,26.383L24.766,17.872Z" style="fill-rule:nonzero;"/>
    <path d="M16.255,22.553C16.255,22.083 16.637,21.702 17.107,21.702L17.957,21.702C18.428,21.702 18.809,22.083 18.809,22.553L18.809,26.383C18.809,26.853 18.428,27.234 17.957,27.234L17.107,27.234C16.637,27.234 16.255,26.853 16.255,26.383L16.255,22.553Z" style="fill-rule:nonzero;"/>
    <path d="M12,24.681C12,24.211 12.381,23.83 12.851,23.83L13.702,23.83C14.172,23.83 14.553,24.211 14.553,24.681L14.553,26.383C14.553,26.853 14.172,27.234 13.702,27.234L12.851,27.234C12.381,27.234 12,26.853 12,26.383L12,24.681Z" style="fill-rule:nonzero;"/>
</svg>
