<?xml version="1.0" encoding="UTF-8" standalone="no"?>
<!DOCTYPE svg PUBLIC "-//W3C//DTD SVG 1.1//EN" "http://www.w3.org/Graphics/SVG/1.1/DTD/svg11.dtd">
<svg width="100%" height="100%" viewBox="0 0 72 40" version="1.1" xmlns="http://www.w3.org/2000/svg" xmlns:xlink="http://www.w3.org/1999/xlink" xml:space="preserve" xmlns:serif="http://www.serif.com/" style="fill-rule:evenodd;clip-rule:evenodd;stroke-linejoin:round;stroke-miterlimit:2;">
    <path d="M33.787,16.786C31.575,16.786 30,18.297 30,20.367L30,20.381C30,22.317 31.37,23.744 33.327,23.744C34.726,23.744 35.616,23.031 35.991,22.225L36.132,22.225C36.132,22.303 36.125,22.381 36.125,22.458C36.047,24.408 35.362,25.991 33.744,25.991C32.847,25.991 32.218,25.524 31.95,24.811L31.929,24.74L30.134,24.74L30.148,24.818C30.473,26.379 31.872,27.488 33.744,27.488C36.309,27.488 37.856,25.454 37.856,22.02L37.856,22.006C37.856,18.333 35.962,16.786 33.787,16.786ZM33.779,22.345C32.621,22.345 31.78,21.498 31.78,20.318L31.78,20.304C31.78,19.166 32.677,18.269 33.801,18.269C34.931,18.269 35.814,19.18 35.814,20.346L35.814,20.36C35.814,21.512 34.931,22.345 33.779,22.345Z" style="fill-rule:nonzero;"/>
    <path d="M40.716,20.629C41.366,20.629 41.839,20.134 41.839,19.512C41.839,18.884 41.366,18.396 40.716,18.396C40.073,18.396 39.593,18.884 39.593,19.512C39.593,20.134 40.073,20.629 40.716,20.629ZM40.716,25.871C41.366,25.871 41.839,25.383 41.839,24.754C41.839,24.126 41.366,23.638 40.716,23.638C40.073,23.638 39.593,24.126 39.593,24.754C39.593,25.383 40.073,25.871 40.716,25.871Z" style="fill-rule:nonzero;"/>
    <path d="M48.521,27.234L50.266,27.234L50.266,25.277L51.636,25.277L51.636,23.772L50.266,23.772L50.266,17.04L47.687,17.04C46.303,19.145 44.855,21.491 43.533,23.787L43.533,25.277L48.521,25.277L48.521,27.234ZM45.229,23.815L45.229,23.709C46.218,21.978 47.398,20.092 48.443,18.495L48.549,18.495L48.549,23.815L45.229,23.815Z" style="fill-rule:nonzero;"/>
    <path d="M55.514,27.234L57.336,27.234L57.336,17.04L55.521,17.04L52.857,18.912L52.857,20.629L55.394,18.834L55.514,18.834L55.514,27.234Z" style="fill-rule:nonzero;"/>
</svg>
