<svg width="20" height="20" viewBox="0 0 20 20" fill="none" xmlns="http://www.w3.org/2000/svg">
<path d="M18.0006 9.99891C17.9999 5.74331 14.6677 2.23308 10.4179 2.01107C6.16811 1.78906 2.48832 4.93299 2.04423 9.16535C1.60015 13.3977 4.54723 17.237 8.75056 17.9019L8.75056 12.3114L6.71956 12.3114L6.71956 9.99891H8.75056V8.23641C8.75056 6.23141 9.94506 5.12391 11.7721 5.12391C12.3721 5.13223 12.9707 5.18437 13.5631 5.27991V7.24891H12.5541C12.2058 7.20265 11.8553 7.31731 11.6018 7.56049C11.3482 7.80367 11.2189 8.14899 11.2506 8.49891V9.99891L13.4696 9.99891L13.1146 12.3114H11.2506L11.2506 17.9019C15.1384 17.2869 18.0012 13.9351 18.0006 9.99891Z" fill="#379AE6"/>
</svg>
